<?xml version="1.0" encoding="UTF-8"?>
<svg xmlns="http://www.w3.org/2000/svg" version="1.1" viewBox="0 0 143 44">
  <defs>
    <style>
      .cls-1 {
        fill: #555c80;
      }

      .cls-2 {
        fill: #ed9232;
      }

      .cls-3 {
        fill: #00abaa;
      }
    </style>
  </defs>
  <!-- Generator: Adobe Illustrator 28.7.7, SVG Export Plug-In . SVG Version: 1.2.0 Build 194)  -->
  <g>
    <g id="Layer_1">
      <g id="Layer_1-2" data-name="Layer_1">
        <g>
          <path class="cls-3" d="M49.8.8h-3.8s-1.1-.1-1.1,1.1v42h2.3v-15.4h1.7v15.4h2V1.9c0-1.2-1.1-1.1-1.1-1.1ZM46.6,38c0,0-.3.2-.5.2s-.4,0-.5-.2c0,0-.2-.3-.2-.5v-.3s0-.2.2-.2c0,0,.2,0,.2-.2h.6s.2,0,.2.2,0,.2.2.2v.3c0,.2,0,.4-.2.5Z"/>
          <path class="cls-3" d="M7.6.8v43.1h4.6V.8h-4.6ZM9.3,40.3c-.1,0-.3.2-.5.2s-.4,0-.5-.2-.2-.3-.2-.5,0-.4.2-.5.3-.2.5-.2.4,0,.5.2c.1,0,.2.3.2.5s0,.4-.2.5ZM11.5,38.1c-.1,0-.3.2-.5.2s-.4,0-.5-.2c0,0-.1-.2-.2-.2v-.3c0-.2,0-.4.2-.5,0,0,.2,0,.2-.2h.3c.2,0,.4,0,.5.2.1,0,.2.3.2.5s0,.4-.2.5Z"/>
          <path class="cls-3" d="M37.5,23.8c-6.1-13.6,1-23,1-23h-5.4s-6.7,9.5-.6,23.1c0,0,4.3,8.6-2.2,20h5.4c5.9-10.3,1.8-20.1,1.8-20.1ZM33.4,39.1c0,0,.3-.2.5-.2s.4,0,.5.2c0,0,.2.3.2.5s0,.4-.2.5c0,0-.3.2-.5.2s-.4,0-.5-.2c0,0-.2-.3-.2-.5s0-.4.2-.5ZM34.5,42.5c0,0-.3.2-.5.2s-.4,0-.5-.2c0,0-.2-.3-.2-.5h0v-.3s0-.2.2-.2c0,0,.2,0,.2-.2h.6c0,0,.2,0,.2.2,0,0,0,.2.2.2v.3c0,.2,0,.4-.2.5ZM36.7,37.8c0,0-.3.2-.5.2s-.4,0-.5-.2c0,0-.2-.3-.2-.5s0-.4.2-.5c0,0,.3-.2.5-.2s.4,0,.5.2c0,0,.2.3.2.5s0,.4-.2.5Z"/>
          <path class="cls-3" d="M22.4,20c5.5-9.6,0-19.2,0-19.2h-4.8s5.9,11.1-.9,19.2c0,0,7.9,8.7.2,23.9h5.3c7-13.7.2-23.9.2-23.9ZM20.9,37.1s0-.2.2-.2c0,0,.2,0,.2-.2h.6s.2,0,.2.2c0,0,.1.2.2.2v.3c0,.2,0,.4-.2.5-.1,0-.3.2-.5.2s-.4,0-.5-.2c-.1,0-.2-.3-.2-.5v-.3ZM22.1,40.2c-.1,0-.3.2-.5.2s-.4,0-.5-.2c-.1,0-.2-.3-.2-.5s0-.4.2-.5c.1,0,.3-.2.5-.2s.4,0,.5.2c.1,0,.2.3.2.5s0,.4-.2.5Z"/>
          <path class="cls-1" d="M69.4,8.1h.7V3.1h-.7v5Z"/>
          <path class="cls-1" d="M75.8,3.1v1.8l.2,2h0l-1.2-3.8h-.6v5h.7v-3.5c0,0,0-.3,0-.3h0l1.2,3.9h.6V3.1h-.8Z"/>
          <path class="cls-1" d="M80.1,3.1v.6h.8v4.5h.7V3.7h.8v-.6h-2.3Z"/>
          <path class="cls-1" d="M85.9,3.1v5h1.8v-.6h-1.1v-1.7h1v-.6h-1v-1.6h1.1v-.6h-1.8Z"/>
          <path class="cls-1" d="M91.4,3.1h.8c.5,0,1.2,0,1.2,1.3s0,1.2-.7,1.3l.9,2.4h-.7l-.9-2.5h0v2.5h-.7V3.1h0ZM92.2,3.6h0v1.7c.5,0,.7-.3.7-.8s0-.9-.6-.9Z"/>
          <path class="cls-1" d="M98,4.6v1.7c0,0,0,1.8,0,1.8h-.7V3.1h.6l1.2,3.8h0l-.2-2v-1.8h.7v5h-.6l-1.2-3.9h0v.3h0Z"/>
          <path class="cls-1" d="M105,3.1l1.1,5h-.7l-.2-1h-1l-.2,1h-.7l1.1-5h.6ZM105,5.9l-.3-1.8h0l-.4,2.6h.8v-.7h0Z"/>
          <path class="cls-1" d="M111.3,3.1v.6h-.8v4.4h-.7V3.7h-.8v-.6h2.3Z"/>
          <path class="cls-1" d="M114.9,8.1h.7V3.1h-.7v5Z"/>
          <path class="cls-1" d="M122.1,5.6c0,.9,0,2.6-1.3,2.6s-1.3-1.7-1.3-2.6,0-2.6,1.3-2.6,1.3,1.7,1.3,2.6ZM120.2,5.6c0,1.1,0,2,.6,2s.6-.9.6-2,0-2-.6-2-.6.9-.6,2Z"/>
          <path class="cls-1" d="M126.6,4.6v1.7c0,0,0,1.8,0,1.8h-.7V3.1h.6l1.2,3.8h0l-.2-2v-1.8h.7v5h-.6l-1.2-3.9h0v.3h0Z"/>
          <path class="cls-1" d="M133.7,3.1l1.1,5h-.7l-.2-1h-1l-.2,1h-.7l1.1-5h.6ZM133.7,5.9l-.3-1.8h0l-.4,2.6h.8v-.7h-.1Z"/>
          <path class="cls-1" d="M139.1,3.1v4.4h1.1v.6h-1.8V3.1h.7Z"/>
          <path class="cls-1" d="M69.4,19.5v-5h.8c.9,0,1.2.5,1.2,1.3s0,1-.6,1.1h0c.6.2.7.6.7,1.2,0,.9-.3,1.4-1.3,1.4,0,0-.8,0-.8,0ZM70,15v1.7c.6,0,.7-.4.7-.9s0-.8-.6-.8c0,0,0,0,0,0ZM70,18.9c.6,0,.7-.3.7-.8s0-.9-.7-.9c0,0,0,1.7,0,1.7Z"/>
          <path class="cls-1" d="M87.6,14.4v4.4h1.1v.6h-1.8v-5h.7Z"/>
          <path class="cls-1" d="M103.9,19.5h.7v-5h-.7v5Z"/>
          <path class="cls-1" d="M120.8,15.9v1.7c0,0,0,1.8,0,1.8h-.7v-5h.6l1.2,3.8h0l-.2-2v-1.8h.7v5h-.6l-1.2-3.9h0v.3h0Z"/>
          <path class="cls-1" d="M138.9,14.4c.8,0,1.7,0,1.7,2.6s-.8,2.4-2,2.4h-.5v-5h.8ZM138.8,18.9c1.1,0,1.1-1,1.1-1.9s0-2.1-1.1-2v3.9Z"/>
          <path class="cls-1" d="M70.9,26.5c-.2-.1-.3-.2-.6-.2s-.6.3-.6.6,0,.4.2.5l.5.6c.5.5.7.8.7,1.5s-.4,1.3-1.2,1.3-.5,0-.7-.2v-.7c.2.1.4.3.7.3s.6-.3.6-.7c0-1-1.4-1.2-1.4-2.5s.4-1.3,1.1-1.3.5,0,.7.2v.7h0Z"/>
          <path class="cls-1" d="M83.1,30.8v-5h.8c.6,0,1.3,0,1.3,1.3s-.4,1.5-1.4,1.5v2.2h-.7ZM83.8,26.3v1.7c.6,0,.7-.3.7-.8s0-.8-.6-.8h0Z"/>
          <path class="cls-1" d="M99.5,28.3c0,.9,0,2.6-1.3,2.6s-1.3-1.7-1.3-2.6,0-2.6,1.3-2.6,1.3,1.7,1.3,2.6ZM97.6,28.3c0,1.1,0,2,.6,2s.6-.9.6-2,0-2-.6-2-.6.9-.6,2Z"/>
          <path class="cls-1" d="M111.5,25.8h.8c.5,0,1.2,0,1.2,1.3s0,1.2-.7,1.3l.9,2.4h-.7l-.9-2.5h0v2.5h-.7v-5h0ZM112.3,26.3h0v1.7c.5,0,.7-.3.7-.8s0-.9-.6-.9Z"/>
          <path class="cls-1" d="M127.3,25.8v.6h-.8v4.4h-.7v-4.4h-.8v-.6h2.3Z"/>
          <path class="cls-1" d="M140.6,26.5c-.2-.1-.3-.2-.6-.2s-.6.3-.6.6,0,.4.2.5l.5.6c.5.5.7.8.7,1.5s-.4,1.3-1.2,1.3-.5,0-.7-.2v-.7c.2.1.4.3.7.3s.6-.3.6-.7c0-1-1.4-1.2-1.4-2.5s.4-1.3,1.1-1.3.5,0,.7.2v.7h0Z"/>
          <path class="cls-1" d="M71.2,37.1v.6h-1.1v1.6h1v.6h-1v2.3h-.7v-5h1.8,0Z"/>
          <path class="cls-1" d="M78.6,37.1v.6h-1.1v1.6h1v.6h-1v1.7h1.1v.6h-1.8v-5h1.8Z"/>
          <path class="cls-1" d="M85.1,37.1c.8,0,1.7,0,1.7,2.6s-.8,2.4-2,2.4h-.5v-5h.8ZM85,41.6c1.1,0,1.1-1,1.1-1.9s0-2.1-1.1-2v3.9Z"/>
          <path class="cls-1" d="M94.4,37.1v.6h-1.1v1.6h1v.6h-1v1.7h1.1v.6h-1.8v-5h1.8Z"/>
          <path class="cls-1" d="M100.1,37.1h.8c.5,0,1.2,0,1.2,1.3s0,1.2-.7,1.3l.9,2.4h-.7l-.9-2.5h0v2.5h-.7v-5h0ZM100.8,37.7h0v1.7c.5,0,.7-.3.7-.8s0-.9-.6-.9Z"/>
          <path class="cls-1" d="M109.3,37.1l1.1,5h-.7l-.2-1h-1l-.2,1h-.7l1.1-5h.6ZM109.2,39.9l-.3-1.8h0l-.4,2.6h.8v-.7h0Z"/>
          <path class="cls-1" d="M117.5,37.1v.6h-.8v4.4h-.7v-4.4h-.8v-.6h2.3Z"/>
          <path class="cls-1" d="M123,42.2h.7v-5h-.7v5Z"/>
          <path class="cls-1" d="M132.2,39.6c0,.9,0,2.6-1.3,2.6s-1.3-1.7-1.3-2.6,0-2.6,1.3-2.6,1.3,1.7,1.3,2.6ZM130.2,39.6c0,1.1,0,2,.6,2s.6-.9.6-2,0-2-.6-2-.6.9-.6,2Z"/>
          <path class="cls-1" d="M138.6,38.6v1.7c.1,0,.1,1.8.1,1.8h-.7v-5h.6l1.2,3.8h0l-.2-2v-1.8h.7v5h-.6l-1.2-3.9h0v.3h0Z"/>
        </g>
      </g>
      <g>
        <path class="cls-3" d="M67.7,98.2h1.9v-18.2h-1.9v18.2Z"/>
        <path class="cls-3" d="M86,98.2v-17.8c0-.5-.5-.5-.5-.5h-1.6s-.5,0-.5.5v17.8h1v-6.5h.7v6.5h.9Z"/>
        <path class="cls-3" d="M73.9,80s2.3,4.1,0,8.1c0,0,2.9,4.3,0,10.1h-2.2c3.3-6.4,0-10.1,0-10.1,2.9-3.4.4-8.1.4-8.1h2Z"/>
        <path class="cls-3" d="M80.8,80s-3,4-.4,9.7c0,0,1.7,4.1-.8,8.5h-2.3c2.8-4.8.9-8.5.9-8.5-2.6-5.8.3-9.8.3-9.8h2.3Z"/>
        <path class="cls-2" d="M83.7,95.5s0,0,0-.1c0,0,0,0,0-.1s0,0,.1,0c0,0,0,0,.1,0s0,0,.1,0c0,0,0,0,.1,0s0,0,0,.1c0,0,0,0,0,.1,0,0,0,.2,0,.2,0,0-.1,0-.2,0s-.2,0-.2,0c0,0,0-.1,0-.2"/>
        <path class="cls-2" d="M67.9,96.5c0,0,0-.2,0-.2,0,0,.1,0,.2,0s.2,0,.2,0c0,0,0,.1,0,.2s0,.2,0,.2c0,0-.1,0-.2,0s-.2,0-.2,0c0,0,0-.1,0-.2Z"/>
        <path class="cls-2" d="M69.1,95.3s0,0-.1,0c0,0,0,0-.1,0,0,0,0,.1,0,.2,0,0,0,0,0,.1,0,0,0,0,0,.1,0,0,.1,0,.2,0,0,0,.2,0,.2,0,0,0,0-.1,0-.2,0,0,0-.2,0-.2,0,0-.1,0-.2,0Z"/>
        <path class="cls-2" d="M79.5,95.5c0,0,0-.2,0-.2,0,0,.1,0,.2,0s.2,0,.2,0c0,0,0,.1,0,.2s0,.2,0,.2c0,0-.1,0-.2,0s-.2,0-.2,0,0-.1,0-.2Z"/>
        <path class="cls-2" d="M78.5,96.5c0,0,0-.2,0-.2s.1,0,.2,0,.2,0,.2,0,0,.1,0,.2,0,.2,0,.2c0,0-.1,0-.2,0s-.2,0-.2,0c0,0,0-.1,0-.2Z"/>
        <path class="cls-2" d="M78.5,97.4s0,0,0-.1c0,0,0,0,0-.1,0,0,0,0,.1,0,0,0,0,0,.1,0,0,0,0,0,.1,0,0,0,0,0,.1,0s0,0,0,.1c0,0,0,0,0,.1,0,0,0,.2,0,.2,0,0-.1,0-.2,0s-.2,0-.2,0c0,0,0-.1,0-.2"/>
        <path class="cls-2" d="M73.3,96.5c0,0,0-.2,0-.2,0,0,.1,0,.2,0s.2,0,.2,0c0,0,0,.1,0,.2s0,.2,0,.2c0,0-.1,0-.2,0s-.2,0-.2,0c0,0,0-.1,0-.2Z"/>
        <path class="cls-2" d="M73.3,95.5s0,0,0-.1c0,0,0,0,0-.1,0,0,0,0,.1,0,0,0,0,0,.1,0,0,0,0,0,.1,0,0,0,0,0,.1,0,0,0,0,0,0,.1,0,0,0,0,0,.1,0,0,0,.2,0,.2,0,0-.1,0-.2,0,0,0-.2,0-.2,0,0,0,0-.1,0-.2"/>
        <path class="cls-1" d="M90.6,84.3h.2v-1.7h-.2v1.7Z"/>
        <path class="cls-1" d="M92.7,82.6v1.3c0,0,0,0,0,0l-.4-1.3h-.2v1.7h.2v-1.2s0-.1,0-.1h0s.4,1.3.4,1.3h.2v-1.7h-.2Z"/>
        <path class="cls-1" d="M94.2,82.6v.2h.3v1.5h.2v-1.5h.3v-.2h-.8Z"/>
        <path class="cls-1" d="M96.2,82.6v1.7h.6v-.2h-.4v-.6h.3v-.2h-.3v-.5h.4v-.2h-.6Z"/>
        <path class="cls-1" d="M98.1,82.6h.3c.2,0,.4,0,.4.4s0,.4-.2.4l.3.8h-.2l-.3-.8h0v.8h-.2v-1.7ZM98.3,82.7h0v.6c.2,0,.2,0,.2-.3s0-.3-.2-.3Z"/>
        <path class="cls-1" d="M100.3,83.1v.6s0,.6,0,.6h-.2v-1.7h.2l.4,1.3h0s0-.7,0-.7v-.6h.2v1.7h-.2l-.4-1.3h0s0,.1,0,.1Z"/>
        <path class="cls-1" d="M102.7,82.6l.4,1.7h-.2v-.3h-.4v.3h-.3l.4-1.7h.2ZM102.7,83.5v-.6h0v.9c-.1,0,.1,0,.1,0v-.2Z"/>
        <path class="cls-1" d="M104.9,82.6v.2h-.3v1.5h-.2v-1.5h-.3v-.2h.8Z"/>
        <path class="cls-1" d="M106.1,84.3h.2v-1.7h-.2v1.7Z"/>
        <path class="cls-1" d="M108.5,83.4c0,.3,0,.9-.4.9s-.4-.6-.4-.9,0-.9.4-.9.4.6.4.9ZM107.9,83.4c0,.4,0,.7.2.7s.2-.3.2-.7,0-.7-.2-.7-.2.3-.2.7Z"/>
        <path class="cls-1" d="M110.1,83.1v.6s0,.6,0,.6h-.2v-1.7h.2l.4,1.3h0s0-.7,0-.7v-.6h.2v1.7h-.2l-.4-1.3h0s0,.1,0,.1Z"/>
        <path class="cls-1" d="M112.5,82.6l.4,1.7h-.2v-.3h-.4v.3h-.3l.4-1.7h.2ZM112.5,83.5v-.6h0v.9c-.1,0,.1,0,.1,0v-.2Z"/>
        <path class="cls-1" d="M114.3,82.6v1.5h.4v.2h-.6v-1.7h.2Z"/>
        <path class="cls-1" d="M90.6,88.1v-1.7h.3c.3,0,.4.2.4.5s0,.3-.2.4h0c.2,0,.2.2.2.4,0,.3-.1.5-.4.5h-.3ZM90.8,86.6v.6c.2,0,.2-.1.2-.3s0-.3-.2-.3h0ZM90.8,87.9c.2,0,.2,0,.2-.3s0-.3-.2-.3v.6Z"/>
        <path class="cls-1" d="M96.8,86.4v1.5h.4v.2h-.6v-1.7h.2Z"/>
        <path class="cls-1" d="M102.3,88.1h.2v-1.7h-.2v1.7Z"/>
        <path class="cls-1" d="M108.1,86.9v.6s0,.6,0,.6h-.2v-1.7h.2l.4,1.3h0s0-.7,0-.7v-.6h.2v1.7h-.2l-.4-1.3h0s0,.1,0,.1Z"/>
        <path class="cls-1" d="M114.3,86.4c.3,0,.6,0,.6.9s-.3.8-.7.8h-.2v-1.7h.3ZM114.2,87.9c.4,0,.4-.3.4-.6s0-.7-.4-.7v1.3Z"/>
        <path class="cls-1" d="M91.1,90.6c0,0-.1,0-.2,0-.1,0-.2.1-.2.2s0,.1,0,.2l.2.2c.2.2.2.3.2.5s-.2.4-.4.4-.2,0-.3,0v-.2c0,0,.1,0,.2,0,.1,0,.2-.1.2-.2,0-.3-.5-.4-.5-.9s.1-.4.4-.4.2,0,.2,0v.2Z"/>
        <path class="cls-1" d="M95.2,92v-1.7h.3c.2,0,.4,0,.4.5s-.1.5-.5.5v.8h-.2ZM95.5,90.5v.6c.2,0,.2,0,.2-.3s0-.3-.2-.3h0Z"/>
        <path class="cls-1" d="M100.8,91.2c0,.3,0,.9-.4.9s-.4-.6-.4-.9,0-.9.4-.9.4.6.4.9ZM100.2,91.2c0,.4,0,.7.2.7s.2-.3.2-.7,0-.7-.2-.7-.2.3-.2.7Z"/>
        <path class="cls-1" d="M104.9,90.3h.3c.2,0,.4,0,.4.4s0,.4-.2.4l.3.8h-.2l-.3-.8h0v.8h-.2v-1.7ZM105.2,90.5h0v.6c.2,0,.2,0,.2-.3s0-.3-.2-.3Z"/>
        <path class="cls-1" d="M110.3,90.3v.2h-.3v1.5h-.2v-1.5h-.3v-.2h.8Z"/>
        <path class="cls-1" d="M114.8,90.6c0,0-.1,0-.2,0-.1,0-.2.1-.2.2s0,.1,0,.2l.2.2c.2.2.2.3.2.5s-.2.4-.4.4-.2,0-.3,0v-.2c0,0,.1,0,.2,0,.1,0,.2-.1.2-.2,0-.3-.5-.4-.5-.9s.1-.4.4-.4.2,0,.2,0v.2Z"/>
        <path class="cls-1" d="M91.2,94.2v.2h-.4v.5h.4v.2h-.4v.8h-.2v-1.7h.6Z"/>
        <path class="cls-1" d="M93.7,94.2v.2h-.4v.5h.3v.2h-.3v.6h.4v.2h-.6v-1.7h.6Z"/>
        <path class="cls-1" d="M95.9,94.2c.3,0,.6,0,.6.9s-.3.8-.7.8h-.2v-1.7h.3ZM95.9,95.7c.4,0,.4-.3.4-.6s0-.7-.4-.7v1.3Z"/>
        <path class="cls-1" d="M99.1,94.2v.2h-.4v.5h.3v.2h-.3v.6h.4v.2h-.6v-1.7h.6Z"/>
        <path class="cls-1" d="M101,94.2h.3c.2,0,.4,0,.4.4s0,.4-.2.4l.3.8h-.2l-.3-.8h0v.8h-.2v-1.7ZM101.3,94.4h0v.6c.2,0,.2,0,.2-.3s0-.3-.2-.3Z"/>
        <path class="cls-1" d="M104.2,94.2l.4,1.7h-.2v-.3h-.4v.3h-.3l.4-1.7h.2ZM104.1,95.1v-.6h0v.9c-.1,0,.1,0,.1,0v-.2Z"/>
        <path class="cls-1" d="M107,94.2v.2h-.3v1.5h-.2v-1.5h-.3v-.2h.8Z"/>
        <path class="cls-1" d="M108.8,95.9h.2v-1.7h-.2v1.7Z"/>
        <path class="cls-1" d="M112,95c0,.3,0,.9-.4.9s-.4-.6-.4-.9,0-.9.4-.9.4.6.4.9ZM111.3,95c0,.4,0,.7.2.7s.2-.3.2-.7,0-.7-.2-.7-.2.3-.2.7Z"/>
        <path class="cls-1" d="M114.2,94.7v.6s0,.6,0,.6h-.2v-1.7h.2l.4,1.3h0s0-.7,0-.7v-.6h.2v1.7h-.2l-.4-1.3h0s0,.1,0,.1Z"/>
      </g>
    </g>
  </g>
</svg>